<?xml version="1.0" encoding="utf-8"?>
<!-- Generator: Adobe Illustrator 21.0.0, SVG Export Plug-In . SVG Version: 6.00 Build 0)  -->
<svg version="1.1" id="Layer_1" xmlns="http://www.w3.org/2000/svg" xmlns:xlink="http://www.w3.org/1999/xlink" x="0px" y="0px"
	 viewBox="0 0 921.6 343.6" style="enable-background:new 0 0 921.6 343.6;" xml:space="preserve">
<style type="text/css">
	.st0{fill:#FDB913;}
	.st1{fill:#FFFFFF;}
	.st2{fill:#010101;}
</style>
<g>
	<g>
		<polygon class="st0" points="22.3,29.5 22.3,315.6 308.4,315.6 308.4,29.5 		"/>
		<path class="st1" d="M143.9,141.6c-1.7,0.7-2.3,1.7-2.7,3c-0.3,1-13.5,56.4-13.6,57.4c-0.3,1.3-0.3,2.3,1.1,2.9
			c1.5,0.6,9,3.3,9.6,3.5c0.6,0.2,0.5,0.6-0.2,0.6h-32.2c-0.6,0-0.9-0.2-0.3-0.4c0.7-0.3,7.8-2.9,8.4-3.1c0.8-0.3,2.6-1,3.1-2.6
			c0.3-1.2,13.8-56.9,14.1-57.9c0.3-1.4,0.2-2.7-1.4-3.3c-0.9-0.3-9.1-3.1-9.4-3.3c-0.5-0.2-0.5-0.4-0.1-0.4H154
			c0.4,0,0.7,0.3,0.3,0.4c-0.5,0.1-6.1,1.7-6.7,1.9C146.9,140.5,144.9,141.1,143.9,141.6"/>
		<path class="st1" d="M209.2,204.6c-1,0.4-12.3,4.7-23.2,5c-28.1,0.7-38.3-18.8-33.5-36.7c2.5-9.4,8.6-18.2,16.4-24.4
			c4.5-3.5,17.7-11.7,35.1-11.7c3.3,0,11.6,0.4,17.8,2c3,0.8,2.5,2.4,2.2,3.7c-0.2,0.6-6.8,20.4-7,20.9c-0.3,0.7-0.9,0.8-0.9,0
			c0-0.5,0.8-18,0.8-18.8c0-1.8,0-3-2.1-3.6c-2.9-1-16.6-2.2-26.8,2.6c-17,7.9-27,26.3-24.9,40.9c1.6,12.1,11.2,21.9,26.5,22.3
			c4.8,0.1,8.3-0.6,9.3-0.9c1.5-0.4,1.7-0.9,2.1-1.8c0.3-0.9,2.9-11.7,3-12.1c0.1-0.5,0.8-2-0.8-2.4c-1.6-0.4-15.4-4.2-16.1-4.3
			c-0.7-0.2-0.4-0.6,0.1-0.6h26c1,0,3.8-0.3,3.1,2.3c-0.8,2.6-4.7,15-5,15.9C210.9,203.8,210.1,204.3,209.2,204.6"/>
		<path class="st1" d="M84.9,173.9c0,1.5-0.6,2.3-3,2.3c-2.4,0-16.9,0-16.9,0c-2.6,0-2.5-1.5-1.6-2.5c0.9-1.1,18.7-20.2,19.4-20.9
			c1.2-1.4,2.4-1.4,2.4,0.6C85.3,155.3,84.9,172.9,84.9,173.9 M104.5,208.6c-0.8-0.3-7-3-8.6-3.7c-1.8-0.9-1.9-2.2-2-3.3
			c0-1,0.9-65.3,0.7-65.8c-0.1-0.3-0.5-0.3-0.8,0c-1.1,1-63.2,68.7-64.3,69.4c-2.2,1.7-6.6,3.2-6.8,3.3c0,0-0.1,0.1-0.3,0.1v0.5
			c0.2,0,0.3,0,0.4,0h32.8c0.5,0,0.6-0.4,0.2-0.5c-2.4-0.5-13-2.7-14.8-3.2c-1.8-0.5-2-1.6-1.2-2.5c0.6-0.9,17.3-21.6,18.5-22.5
			c1.5-1.2,2.2-1.3,4.8-1.4c0.9,0,5.8-0.2,10.6,0c4,0.1,7.8,0.4,8.9,0.5c2.5,0.2,2.2,2,2.2,3c0,0.9-0.7,16-0.8,18.6
			c-0.1,2.7-0.5,3-2.2,3.6c-0.8,0.3-12.1,3.9-12.5,4.1c-0.4,0.1,0.1,0.2,0.1,0.2h34.8C104.7,209,104.8,208.7,104.5,208.6"/>
		<path class="st1" d="M275.5,173.9c0,1.5-0.7,2.3-3,2.3c-2.3,0-17,0-17,0c-2.6,0-2.5-1.5-1.6-2.5c1-1.1,18.7-20.2,19.4-20.9
			c1.3-1.4,2.4-1.4,2.4,0.6C275.7,155.3,275.5,172.9,275.5,173.9 M295,208.6c-0.8-0.3-7-3-8.6-3.7c-1.8-0.9-1.9-2.2-2-3.3
			c-0.1-1,0.9-65.3,0.7-65.8c-0.1-0.3-0.5-0.3-0.8,0c-1,1-63.2,68.7-64.4,69.4c-2.2,1.7-6.5,3.3-6.8,3.5c-0.3,0.1-0.3,0.5,0.1,0.5
			H246c0.5,0,0.5-0.4,0.2-0.5c-2.4-0.5-13-2.7-14.8-3.2c-1.8-0.5-2-1.6-1.3-2.5c0.7-0.9,17.4-21.6,18.5-22.5
			c1.6-1.2,2.2-1.3,4.9-1.4c0.9,0,5.8-0.2,10.6,0c4,0.1,7.8,0.4,8.9,0.5c2.5,0.2,2.2,2,2.2,3c0,0.9-0.7,16-0.8,18.6
			c-0.1,2.7-0.5,3-2.2,3.6c-0.9,0.3-12.1,3.9-12.5,4.1c-0.4,0.1,0.1,0.2,0.1,0.2h34.8C295.2,209,295.4,208.7,295,208.6"/>
	</g>
	<g>
		<path class="st2" d="M565.1,270.6H414.8l-20.8,44.9H331l132.4-286h53.1l132.4,286H586L565.1,270.6z M441.3,213.4h97.2L489.9,108
			L441.3,213.4z"/>
		<path class="st2" d="M901.4,29.5v41.3L753.5,258.3h147.9v57.2H668.1v-41.3L816,86.7H668.1V29.5H901.4z"/>
	</g>
</g>
</svg>
